<svg width="1026" height="760" viewBox="0 0 1026 760" fill="none" xmlns="http://www.w3.org/2000/svg">
<rect x="1" y="33" width="1024" height="726" fill="white" stroke="black"/>
<path d="M1 15V33H1025V15C1025 7.26801 1018.73 1 1011 1H15C7.26801 1 1 7.26801 1 15Z" fill="white" stroke="black"/>
<rect x="130" y="179.799" width="602" height="449.201" fill="white" stroke="black"/>
<path d="M130 180V161C130 153.268 136.268 147 144 147H718C725.732 147 732 153.268 732 161V180" stroke="black"/>
<rect x="257" y="79.7995" width="602" height="449.201" fill="white" stroke="black"/>
<path d="M257 80V61C257 53.268 263.268 47 271 47H845C852.732 47 859 53.268 859 61V80" stroke="black"/>
<rect x="256.5" y="679.5" width="63" height="63" rx="3.5" stroke="black"/>
<rect x="346.5" y="679.5" width="63" height="63" rx="3.5" stroke="black"/>
<rect x="436.5" y="679.5" width="63" height="63" rx="3.5" stroke="black"/>
<rect x="526.5" y="679.5" width="63" height="63" rx="3.5" stroke="black"/>
<rect x="616.5" y="679.5" width="63" height="63" rx="3.5" stroke="black"/>
<rect x="706.5" y="679.5" width="63" height="63" rx="3.5" stroke="black"/>
<path d="M23.7585 12.2727V21H25.5483V15.2983H25.6207L27.8793 20.9574H29.098L31.3565 15.3196H31.429V21H33.2188V12.2727H30.9432L28.5398 18.1364H28.4375L26.0341 12.2727H23.7585ZM37.7049 21.1278C39.3285 21.1278 40.4151 20.3395 40.6708 19.125L38.9961 19.0142C38.8129 19.5128 38.3398 19.7727 37.739 19.7727C36.8313 19.7727 36.256 19.1719 36.256 18.196V18.1918H40.7134V17.6932C40.7134 15.4688 39.3668 14.3693 37.6367 14.3693C35.7106 14.3693 34.462 15.7372 34.462 17.7571C34.462 19.8324 35.6935 21.1278 37.7049 21.1278ZM36.256 17.0668C36.2901 16.321 36.8612 15.7244 37.6665 15.7244C38.4506 15.7244 38.9961 16.2869 39.0046 17.0668H36.256ZM43.739 17.2159C43.7433 16.3722 44.2461 15.8778 44.979 15.8778C45.7077 15.8778 46.1467 16.3551 46.1424 17.1562V21H47.9577V16.8324C47.9577 15.3068 47.0629 14.3693 45.6992 14.3693C44.7276 14.3693 44.0245 14.8466 43.7305 15.6094H43.6538V14.4545H41.9237V21H43.739V17.2159ZM53.5859 18.2131C53.5902 19.0909 52.9893 19.5511 52.3374 19.5511C51.6513 19.5511 51.2081 19.0696 51.2038 18.2983V14.4545H49.3885V18.6222C49.3928 20.152 50.2876 21.0852 51.6044 21.0852C52.5888 21.0852 53.2962 20.5781 53.5902 19.8111H53.6584V21H55.4013V14.4545H53.5859V18.2131Z" fill="black"/>
<path d="M952.865 12.1278C950.913 12.1193 949.597 13.3977 949.605 15.1705C949.597 16.8068 950.739 17.9872 952.286 17.9872C953.244 17.9872 954.097 17.5227 954.484 16.7557H954.544C954.54 18.4858 953.939 19.5384 952.801 19.5384C952.132 19.5384 951.651 19.1719 951.51 18.5369H949.69C949.861 20.0071 951.054 21.1193 952.801 21.1193C954.962 21.1193 956.347 19.3722 956.351 16.4105C956.347 13.2188 954.659 12.1321 952.865 12.1278ZM952.878 13.5767C953.726 13.5767 954.352 14.267 954.361 15.1108C954.352 15.9588 953.705 16.6491 952.861 16.6491C952.009 16.6491 951.386 15.9844 951.395 15.1193C951.386 14.2457 952.021 13.5767 952.878 13.5767ZM958.75 15.4773C959.304 15.4773 959.777 15.0213 959.786 14.4545C959.777 13.9006 959.304 13.4489 958.75 13.4489C958.192 13.4489 957.723 13.892 957.727 14.4545C957.723 15.0213 958.188 15.4773 958.75 15.4773ZM958.75 19.8622C959.304 19.8622 959.777 19.4062 959.786 18.8395C959.777 18.2855 959.304 17.8338 958.75 17.8338C958.192 17.8338 957.723 18.277 957.727 18.8395C957.723 19.4062 958.188 19.8622 958.75 19.8622ZM961.294 21H967.516V19.4915H963.953V19.4318L965.236 18.1832C966.774 16.777 967.358 15.9545 967.354 14.8381C967.345 13.3253 966.161 12.1534 964.277 12.1534C962.449 12.1534 961.162 13.2486 961.166 14.9616H962.918C962.918 14.1222 963.463 13.6151 964.264 13.6151C965.036 13.6151 965.615 14.0923 965.619 14.8594C965.615 15.554 965.176 16.044 964.401 16.794L961.294 19.6705V21ZM968.958 21H975.18V19.4915H971.617V19.4318L972.9 18.1832C974.438 16.777 975.022 15.9545 975.018 14.8381C975.009 13.3253 973.825 12.1534 971.941 12.1534C970.113 12.1534 968.826 13.2486 968.83 14.9616H970.582C970.582 14.1222 971.127 13.6151 971.928 13.6151C972.7 13.6151 973.279 14.0923 973.283 14.8594C973.279 15.554 972.84 16.044 972.065 16.794L968.958 19.6705V21ZM980.853 21L981.5 19.0099H984.65L985.297 21H987.275L984.266 12.2727H981.888L978.875 21H980.853ZM981.969 17.5696L983.043 14.267H983.111L984.185 17.5696H981.969ZM988.325 12.2727V21H990.115V15.2983H990.187L992.446 20.9574H993.664L995.923 15.3196H995.995V21H997.785V12.2727H995.51L993.106 18.1364H993.004L990.6 12.2727H988.325Z" fill="black"/>
<path d="M544.426 59.794H547.098V67H548.922V59.794H551.594V58.2727H544.426V59.794ZM552.74 67H554.555V60.4545H552.74V67ZM553.652 59.679C554.18 59.679 554.636 59.2784 554.636 58.7585C554.636 58.2429 554.18 57.8423 553.652 57.8423C553.128 57.8423 552.672 58.2429 552.672 58.7585C552.672 59.2784 553.128 59.679 553.652 59.679ZM559.491 60.4545H558.26V58.8864H556.444V60.4545H555.549V61.8182H556.444V65.2145C556.436 66.4929 557.309 67.1278 558.626 67.0767C559.095 67.0554 559.427 66.9616 559.61 66.9062L559.325 65.5511C559.235 65.5724 559.044 65.6108 558.873 65.6108C558.511 65.6108 558.247 65.4744 558.26 64.9716V61.8182H559.491V60.4545ZM562.653 58.2727H560.838V67H562.653V58.2727ZM567.107 67.1278C568.731 67.1278 569.817 66.3395 570.073 65.125L568.398 65.0142C568.215 65.5128 567.742 65.7727 567.141 65.7727C566.234 65.7727 565.658 65.1719 565.658 64.196V64.1918H570.116V63.6932C570.116 61.4688 568.769 60.3693 567.039 60.3693C565.113 60.3693 563.864 61.7372 563.864 63.7571C563.864 65.8324 565.096 67.1278 567.107 67.1278ZM565.658 63.0668C565.692 62.321 566.263 61.7244 567.069 61.7244C567.853 61.7244 568.398 62.2869 568.407 63.0668H565.658Z" fill="black"/>
</svg>
