<svg height='100px' width='100px'  fill="#000000" xmlns="http://www.w3.org/2000/svg" viewBox="0 0 64 64" x="0px" y="0px"><title>Browser_32</title><g data-name="Browser"><path d="M2,2V62H62V2ZM60,4v6H4V4ZM4,60V12H60V60Z"></path><rect x="6" y="6" width="2" height="2"></rect><rect x="10" y="6" width="2" height="2"></rect><rect x="14" y="6" width="2" height="2"></rect><rect x="56" y="6" width="2" height="2"></rect><path d="M8,56H32V16H8Zm2-38H30V54H10Z"></path><path d="M36,34H56V16H36Zm2-16H54V32H38Z"></path><path d="M36,56H56V38H36Zm2-16H54V54H38Z"></path></g></svg>